<?xml version="1.0" encoding="utf-8"?>
<!-- Generator: Adobe Illustrator 18.0.0, SVG Export Plug-In . SVG Version: 6.00 Build 0)  -->
<!DOCTYPE svg PUBLIC "-//W3C//DTD SVG 1.1 Tiny//EN" "http://www.w3.org/Graphics/SVG/1.1/DTD/svg11-tiny.dtd">
<svg version="1.1" baseProfile="tiny" id="Layer_1" xmlns="http://www.w3.org/2000/svg" xmlns:xlink="http://www.w3.org/1999/xlink"
	 x="0px" y="0px" viewBox="0 0 1059 818" xml:space="preserve">
<g>
	<path fill="#797979" d="M652.5,170.1c-1.2-3.4-4.3-3.7-7.4-4.2c0.2-0.6,0.3-1.2,0.7-1.6c5.8-6.6,11.5-13.2,18.1-19.1
		c2.3-2,4.6-2.2,7.6-2.1c7.3,0.4,13.7,6.5,15.4,15.4c0.1,0.6-0.1,1.5,0.9,1.4c1.2-0.1,2.6-0.3,3.3-1.4c1.8-2.9,4.3-5.4,4.8-9
		c0.1-0.8-0.2-2,1.1-1.9c0.8,0.1,1.4,0.8,1.7,1.8c0.4,1.5-0.5,4,1.5,4.2c1.3,0.1,2-2.4,3-3.7c2.2-2.8,4.4-5.6,8.6-5.4
		c2.4,0.1,1.9-2.2,2-3.5c0.2-3,1.4-3.6,4-2.5c1,0.4,2.1,0.6,3.2,0.7c3.8,0.4,3.9,0.3,2.7-3.4c0-0.1-0.2-0.1-0.2-0.2
		c3-2,1.3-6.2,3.6-8.5c1.8-1.7,2.7-1.2,3.8,1.8c0.9-0.3,0.6-1,0.6-1.6c0.2-2.7,1.6-3.7,3.9-2.4c1.8,1,1.9,0,2.9-1
		c4.3-4.2,4.6-9.8,6-15c0.7-2.7,3.3-4.4,5.8-4.4c4.7-0.1,7.4-2.8,9.6-6.2c1.9-2.9,4-2.9,6.9-1.8c12,4.4,23.9,8.8,35.7,13.7
		c8,3.4,14.4,9.1,21.5,13.8c1,0.6,0.8,1.4,0.8,2.3c0,1.8-0.1,3.6,0,5.3c0.1,3,2,5.3,3.4,7.8c1.7,3,4.3,3.4,7.3,3.4
		c1.1,0,2.5,0,2.3,1.6c-0.4,3.1,1.7,5,3.2,7.1c1.1,1.5,1.1,2.6,0.4,4.2c-1.4,3-2.9,6-2.6,9.5c0.1,1.7,0.5,2.5,2.4,2.8
		c6.5,0.8,10.3,4.1,11.3,11c0.7,4.7,1.2,9.8,4.8,13.6c0.7,0.7,2,2.1,0.8,3c-1,0.8-2.7,0.9-4-0.2c-1.1-1-2-2.1-2.6-3.4
		c-0.6-1.3-1.2-2.5-2-4.3c-2.3,4.1-2.9,8-2.8,12c0.1,3.2-0.2,6.3-3.7,7.8c-1.6,0.7-0.3,1.7,0,2.4c1.4,2.9,3.8,5.2,4,8.7
		c0.1,2.9-1.7,4.7-2.9,6.9c-0.5,0.8-1.6,0.7-2.4,0.5c-1-0.3-0.7-1.3-0.6-2c0.8-5-1.1-8.8-5.1-11.8c-0.9-0.7-1.8-1.3-2.9-1.5
		c-3.7-0.5-5.2,1.3-3.6,4.6c1.5,3.3,3.3,6.5,5.2,9.7c4.7,8.1,3.1,17.8-4,23.9c-1.9,1.7-4.8,2.8-4.3,6.2c0.2,1.4,0.5,2.6,1.8,3.7
		c3.2,3,3.9,7.3,5,11.4c0.3,1.1-1,2.2-1.9,3.3c-3.1-3.3-4.9-7.3-6.9-11.3c-1.4-2.8-3-5.3-1.1-8.7c1-1.8,0.1-4.1-1.3-5.9
		c0,0,0-0.1,0-0.1c-0.3-0.4-0.5-0.8-1.1-0.7l0,0c0.1-0.6-0.2-0.8-0.7-0.7l0,0c-3-3-7.4-3-9.3,0l0,0c-0.9-0.7-1.2,0-1.4,0.7l0.1-0.1
		c-2.5,1.6-2.5,4.1-2.2,6.6c0.2,2.5,1,3.4,2.9,4l0,0c0,0.2,0,0.5,0,0.7c0.2,0,0.5,0,0.7-0.1l0,0c1.9,2,3.5,4.2,3.7,7.1
		c0.1,1.2,0.3,2.4,0.1,3.6c-1.1,6.2-3.8,7.8-9.9,5.9c-0.6-0.2-1.2-0.4-2.2-0.7c0.8,2.2,2.4,3.3,3.2,4.9c0.5,0.8,2.9,1.5,0.7,3
		c-1.7,1.2-2.9,1.3-4.1-0.9c-2.7-4.8-5.7-9.5-8.6-14.2c-0.9-1.5-1.8-2.8-3.8-2.5c-1.4,0.2-1.9-0.8-2.5-1.8c-1.7-3.1-3.5-6.2-5.1-9.3
		c-0.7-1.4-1.6-2.4-3.3-2.3c-1.8,0-2.5,1.3-3,2.7c-0.9,2.6-2.5,4.6-5.3,5.5c-1.5,0.5-2.7,1.8-3.5,3.4c-1.6,3.2-3.7,6.1-5,9.4
		c-0.8,2.1-3.7,2.7-3.6,5.4c0,0.7-0.9,0.4-1.4,0.3c-1.8-0.2-2.5-1.7-3.5-2.9c-1.2-1.4-0.6-2.4,0.5-3.6c0.5-0.5,1.6-1.5,1.1-2.8
		l-0.1,0c0.8,0.3,1,0.1,0.7-0.7l0,0c3.1-1.7,3.4-6.1,0.7-9.4l0.1,0c-2.3-3.4-5.6-4.4-9.8-2.7c-1.3,0.5-2.2,0.9-2.9-0.7
		c-0.2-0.4-0.7-1-1.2-1c-6.9-0.8-12.8-4.7-20-7.1c1,2.6,1.6,4.9,2.7,6.8c1.1,1.8,2.7,3.3,5.2,2c0.7-0.3,1.5-0.5,2.2-0.7
		c3.4-1.1,7.9,0.6,9.3,3.7c0.7,1.5,0.2,3-0.9,4.3c-5.8,6.8-12.9,11.5-21.8,13.2c-1.9,0.4-3-0.2-4.1-1.8
		c-5.2-7.5-10.5-14.9-15.8-22.3c-0.7-1-1.1-2.3-2.9-2c0.2,2.7,0.7,5.3,2.2,7.7c5.9,9.5,14.1,17.2,22,24.9c1.9,1.9,4.6,2.6,7,3.7
		c1.5,0.7,1.7,1.3,0.7,2.7c-3.8,4.9-7,10.3-12,14.2c-4.8,3.7-5.8,7.9-3.6,13.8c1.9,5.2,1.9,9.9-2.7,14.1c-3.8,3.4-6.9,7.6-7.1,13.1
		c0,0.7-0.5,1.4-0.8,2.3c-1.1-0.9-1-2.7-2.6-3l0,0c0-0.5-0.2-0.7-0.7-0.7l0,0c-2.5-2.8-5.5-2.5-8.5-1.2c-3.2,1.4-4.6,4.1-4.5,7.5
		c0.1,3.4,1.8,5.8,4.9,7.3c1,0.5,3.3-0.2,2.6,2.3c-0.5,1.8-0.7,3.4-3.2,3.7c-5.3,0.7-10.5,1.9-15.7,3c-1.8,0.4-2.9,0-3.4-1.9
		c-2-7.3-5-14.2-8.8-20.8c-0.7-1.2-0.9-2.5-0.8-3.8c0.3-9.8-3.8-18.4-7.7-26.9c-1.5-3.3-2.9-6.1-0.4-9.5c1.3-1.8,0-4.3-2.3-4.6
		c-3.9-0.5-7.6-1.2-11.1-3.1c-1.8-1-3.4,0.6-4.8,1.5c-2.8,1.7-5.2,1.1-8.1,0.4c-10.6-2.3-17.7-8.2-21.6-18.3c-0.8-2.1-1.6-4-1.4-6.3
		c0.4-4.6,0.6-9.3,0.7-14c0.2-6.9,4.2-11.4,9.3-15.3c5.1-4,10.9-5.1,17.3-5.4c6.2-0.3,12.4-2.2,18.6-3.6c2.3-0.5,3.7-0.4,3.6,2.4
		c-0.2,2.8,0.9,4.2,4.1,4.2c3.1,0,5.6,2,8,3.7c1,0.7,2,1.3,3.1,0.8c1.1-0.5,0.3-1.6,0.2-2.4c-0.2-1.5,0.6-2,1.7-2.4
		c3.2-1.1,6.3-1,9.4,0.2c2.8,1,5.6,2,8.4,3c2.3,0.8,4.3,0.3,6.2-1.2c1.4-1.1,3-2.3,2.1-4.4c-0.9-2-1.7-4.1-4.7-3.8
		c-1.9,0.2-3.8,0-5.7-0.2c-2.5-0.2-4.8-0.7-5.2-3.9c-0.3-2.5-3.7-3-4.3-5.6c-0.1-0.4-1-0.5-1.5,0.4c-0.8,1.4-1.2,2.7-0.1,4.1
		c0.9,1.2,0.9,2.5-0.6,3c-1.4,0.4-3.2,1.7-4.2-0.7c-0.3-0.8-0.6-1.7-1.1-2.4c-2-2.5-2.6-4.3,0.4-6.9c3.3-2.9,2.3-8.4-1-10.4l0,0.1
		c-1.8-3.5-6.8-3.8-10.1-0.7c0,0,0,0,0,0c-1.3,0.5-2.3,1.6-2.8-1.1c-0.6-3.3-3.8-5.3-7.2-5.4c-3.4-0.1-6.1,1.4-7.6,4.4
		c-1.4,2.8-1.7,5.7,0.8,8.2l-0.1,0c-0.1,1.4,1.8,1.6,2,3.3c-7.3,0.4-8.3,6.3-9.8,11.5c-0.9,3-2.2,4.6-5.5,3.9c-0.4-0.1-0.9,0-1.3,0
		c-10.1-0.1-10-0.1-9.3-10.1c0.1-1.6,0.7-2.2,2.2-2c2.3,0.2,4.7-0.1,6.9-0.6c2.1-0.5,3.9-1.6,4.8-3.7c1.6-3.7,0-6-4.1-5.7
		c-2.3,0.1-3.4-1.8-4.2-3.2c-0.7-1.3,1.3-1.7,2.2-2.2c5-2.9,9.8-6.1,14.3-9.7c2-1.6,2.9-3.1,2.5-5.6c-0.2-1.1-0.6-2.3,0.9-3.2
		c1.5-0.9,2.1,0.2,3.1,0.9c3.5,2.6,12.2,2.7,15.4,0.4c0.4-0.3,0.6-0.9,0.8-1.4c2.2-5.7,5.5-10.3,12.3-11.1c-2.9-1.6-6-1.2-9-1.3
		c-2.6-0.1-4.2-0.4-3.1-3.7c0.9-2.8,1.1-5.8,1.3-8.7c-3.5,4.9-7.8,9.5-6,16.4c0.4,1.6,0.2,3.3,0.1,5c-0.2,5.1-0.7,5.5-5.9,5.2
		c-1-0.1-1.7-0.1-1.9-1.3c-0.5-3-2.9-3.9-5.4-4.8c-2.2-0.8-4.7-1.2-5.9-3.9c7.8,1.9,9.3,1.7,11.2-1.3l-0.1,0
		C654.4,177.9,655,173.5,652.5,170.1L652.5,170.1z"/>
	<path fill="#797979" d="M580.7,371.5c7.3,8.5,15.1,16.3,23.8,23.3c30.3,24.4,64.8,38.3,103.6,40.8c53.2,3.4,100-12.6,139.2-48.9
		c30.2-27.9,48.5-62.6,54-103.6c9.8-74-28.5-145.4-95.4-179c-29.7-14.9-61.2-21.8-94.4-19.9c-45.4,2.6-84.8,19.5-117.9,50.8
		c-18.7,17.7-33,38.4-42.1,62.4c-15.6,41.5-15.9,83.3,0.1,124.9c1,2.5,1,4.5-0.3,6.9c-2.5,4.5-4.8,9.2-8,13.9
		c-3.4-6.1-6-12.2-8-18.4c-23.4-70.5-11.8-134.7,37.2-190.8c31.7-36.3,72.5-57.4,120.3-63.8c62.9-8.4,118.5,8.5,165.3,51.4
		c32.7,30,52.7,67.4,58.8,111.5c7.8,56.6-7,107.1-44.2,150.5c-31.9,37.2-72.6,59.8-121.1,66.4c-70,9.6-129.9-11.4-178.8-62.9
		c-1.6-1.7-1.7-2.8-0.1-4.6C575.4,379,577.9,375.3,580.7,371.5z"/>
	<path fill="#494949" d="M578,178.7c8.1,16.9,13.5,34.3,16.1,52.4c6.8,47-2.2,91-28.3,130.7c-31,47.2-74.7,76.4-130.3,86.3
		c-66.1,11.7-124.7-5.1-174.3-50.6c-32.6-30-52.4-67.4-58.2-111.3c-8.1-60.6,9.4-113.6,51.5-157.9c30.9-32.6,69.2-52.4,113.6-58.4
		c70.8-9.7,131.2,11.7,180.2,64.2c1.7,1.9,2.1,3.1,0.2,5.2c-2.2,2.5-4.1,5.3-5.8,8.1c-1.4,2.3-2.2,2.6-4.1,0.4
		c-8.3-10-17.8-18.9-28.2-26.8c-26.9-20.3-57.1-32.7-90.7-36.1c-56.4-5.8-106,10-147.6,48.6c-31.6,29.4-50.5,65.9-54.1,109.1
		c-5.7,68,20.8,121.7,76.1,161c34.3,24.4,73.3,34.4,115.2,31.9c44.8-2.6,83.8-19.3,116.4-50.3c28.3-26.9,45.8-59.7,52.2-98.2
		c4.9-30,1.9-59.3-8.8-87.8c-0.7-1.8-0.7-3.2,0.2-5c2.4-4.2,4.6-8.6,6.9-12.9C576.8,180.5,577.3,179.8,578,178.7z"/>
	<path fill="#474747" d="M359.8,282.1c-0.6,0.9-1.3,1.8-2,2.8c-1.1-1.9-3-1.7-4.8-1.5c-8.8,1-14.3-4.9-20.6-9.2
		c-0.9-0.6-0.8-1.6-0.5-2.4c2.1-5,0.5-9.2-2.6-13.2c-1.7-2.2-3.1-4.5-5.2-7.5c0.6,4,1.2,7.1,1.5,10.1c0.1,1,0.5,2.5-1,2.8
		c-1.3,0.3-1.9-0.9-2.5-1.9c-2.7-4.9-4.6-10.2-5.2-15.7c-0.6-5.7-2.6-10.7-5.7-15.4c-1.6-2.5-3.1-5.1-4-8c-0.9-2.9-0.5-5.4,2.4-6.9
		c4-2.1,5.5-5,4.6-9.5c-0.4-2.1,0-4.4-0.2-6.6c-0.2-2.5-0.4-5.2-3.3-6.4c-0.4-0.2-0.9-0.3-0.9-0.8c0.3-3.6-0.9-7.5,1.6-10.8
		c1.2-1.6,1.7-3.2,0.8-5.2c-2.5-5.9-4.9-11.9-7.4-17.8c-1.8-4.1-3.8-4.9-8-3.4c-3.4,1.2-6.3,3.2-9.4,5c-6.3,3.9-13.2,5.7-20.6,5.7
		c-1,0-2.6,0.7-2.7-0.9c-0.2-1.6,1.6-1.2,2.5-1.5c2.9-1,5.9-1.9,8.9-2.7c3-0.8,3-2.4,1.7-4.7c-1.3-2.5-3.7-4.3-4.1-7.5
		c-0.4-3.3,0.1-6,2.8-8.3c7.3-6.5,15-12.6,22.5-18.8c1.3-1.1,2.3-1,3.5,0c2.3,1.9,4.6,1.9,7,0.3c1-0.7,2.2-1,3.2-1.8
		c3.1-2.3,6-2,9.2,0c2.6,1.7,5.8,1.7,8.7,1.1c1.9-0.4,2.9,0.1,3.8,1.6c0.3,0.5,0.7,0.9,1,1.3c4.6,5.7,7.3,6.3,13.4,2.1
		c2.4-1.7,3.7-1.3,5.5,0.6c2.3,2.4,4.7,4.8,7.4,6.7c4.7,3.3,4.9,7.4,2.9,12.5c3.3,0.3,6.4,0.6,10.6-2.2c-2.5-1.9-4.8-3.5-6.8-5.4
		c-2-1.8-2.1-3.7,0-5.7c1.5-1.5,2.9-3,4.4-4.5c0.8-0.8,1.3-1.4,0.7-2.6c-0.6-1.2-1.4-0.6-2.3-0.5c-2.4,0.5-4.8,1.1-7.2,1.3
		c-3.2,0.2-4.5-1.6-3.4-4.5c0.5-1.5,1.2-2.9,1.8-4.3c2.4-5.4,7.1-6.4,11.5-2.5c4.4,3.9,8.5,8.1,13.4,11.5c6.4,4.4,5,13.6-2,16.9
		c-1.5,0.7-4.2,0.6-4,2.7c0.2,2,3,1.9,4.7,2.5c0.8,0.3,1.7,0.3,2.6,0.4c4.8,0.5,6.1-0.7,6-5.4c0-2.4-0.3-4.9-0.2-7.3
		c0.2-3.9,2.4-6.1,6.4-6.2c1.9,0,3.8,0,5.6,0.3c2.5,0.4,3.5,1.8,2.1,4.2c-1.7,2.9-3.4,5.7-5,8.6c-0.4,0.8-1,1.5-1.3,2.3
		c-0.8,2.3,0.3,4.3,1.9,5.6c1.7,1.3,3.1-0.3,4.3-1.3c3-2.3,4.3-5.2,3.4-9.1c-0.5-2.3-1-4.6-0.7-6.9c0.4-3.2,1.6-4,4.6-3.3
		c2.8,0.7,5.6,1.5,8.4,2c3,0.6,4.6,2.4,5.3,5.2c0.6,2.6,1.5,5.2,1.6,7.8c0.4,6.3,3.4,11.1,8,15.1c1.2,1,2.4,2.1,1.8,3.9
		c-0.6,1.8-2.2,1.6-3.6,1.8c-3.3,0.4-4.9,1.7-4.4,5.4c0.5,3.2-2,5.6-5.3,5.6c-3.1,0-6.2,0-9.3-0.1c0-0.2-0.1-0.3-0.3-0.3
		c-0.3-0.1-0.6-0.3-0.9-0.4c-0.9-0.7-1.8-1.3-2.6-2c-0.4-0.3-0.8-0.5-0.6-1.3c0.9-3,4.4-5.1,7.4-4.4c1.1,0.3,2.3,0.9,2.7-0.7
		c0.4-1.8,3.1-3,1.3-5.3c-2-2.5-3.9-5.1-5.9-7.7c-0.4-0.5-0.7-1.5-1.5-0.8c-1.7,1.6-4.3,2.5-4.1,5.6c0.1,1.6,0,3.3-0.2,5
		c-0.2,1.9,0.6,4.7-1.4,5.4c-2,0.7-3.1-2-4.6-3.3c-0.1-0.1-0.4-0.1-0.6-0.2c-1.5,5.9-4,7-9.7,4.6c-2.4-1-5-1.8-7.6-2.3
		c-1.2-0.2-3.7-0.1-2.6,1.9c1.6,2.8,0.1,4.3-1.4,6.1c-3.1,3.9-3,5.3,0,9.3c3.9,5.2,9.8,9.4,9.1,17.3c6.1-5.7,9-12.4,11.1-19.6
		c2.3-8.1,2.5-8.1,10.7-7.3c0.3,0.2,0.5,0.4,0.8,0.6c0.2,0.2,0.5,0.5,0.7,0.7c2.1,2.3,4.8,4.3,4.1,8.1c-0.3,1.5,0.8,1.3,1.7,0.7
		c1.4-1.1,2.6-2.4,4-3.4c1.3-0.9,2.8-1.5,4.4-0.8c1.8,0.8,1.5,2.6,1.1,3.8c-2.2,6.9,1.2,11.9,5.5,16.6c2.2,2.4,2.4,4.6,0.5,7.4
		c-2.2,3.3-1.4,7.1-0.9,10.7c0.4,2.5-0.4,2.8-2.6,2.5c-5.2-0.7-9.4-4.1-10.2-9c-0.3-2.3-1.4-2.6-3.2-2.7c-2.8-0.1-5.3,0.3-7.9,2.3
		c2.4,1.6,4.7,3.1,7,4.5c1.3,0.8,2.3,1.7,1.7,3.5c-0.6,1.8-1.8,2.5-3.6,2.1c-5.1-1.2-8.8,0.9-12.5,4.2c-7.8,7.1-16,13.8-24.1,20.5
		c-1.4,1.2-1.9,1.7-0.6,3.6c1.9,2.7,1.5,6.2,0.8,9.3c-0.4,1.6-1.8,1.4-3,0.7c-1.8-1-3-2.7-4.2-4.2c-4-5.1-6.5-5.8-12.6-3.4
		c-2.6,1-5.2,1.8-7.9,2.4c-2.1,0.5-3.5,1.5-3.8,3.9c-0.5,3.5-1.3,7-2,10.5c-0.1,0.6-0.7,1.6-0.1,1.8c2.6,0.8,5.3,1.4,8,2
		c1.5,0.3,2-1.1,2.8-1.9c1.3-1.3,2-3.2,3.7-4.3c1.5-1,2.6-1.4,3.2,1.2c1.2,5.6,0.5,7.3-4.7,9.2c-1.1,0.4-2,1-2.8,1.7
		C360,281.8,359.9,281.9,359.8,282.1z M336.6,235.4c4.5,0,8.3-3.8,8.2-8.3c-0.1-4.3-3.8-8-8.1-8.1c-4.4-0.1-8.3,3.7-8.4,8.2
		C328.3,231.7,332.1,235.5,336.6,235.4z M322.7,172.8c-4.7,0-8.3,3.5-8.2,8.1c0,4.6,3.7,8.1,8.3,8.1c4.5-0.1,7.9-3.5,8-8
		C330.9,176.3,327.4,172.8,322.7,172.8z"/>
	<path fill="#474747" d="M371.6,292.9c1.8-1,1.7-2.9,2.4-4.5c1.1,0.1,1.2,1.2,1.8,1.7c2.5,2.6,5.4,3.2,8.7,1.7
		c3.8-1.7,7.3-4.2,11.9-3c1.7,0.4,3.5,0.4,4.8,1.9c0.3,0.3,0.7,0.8,1.1,0.7c4.9-0.4,7,3.4,9.8,6.3c5.5,5.8,11.9,10.7,18.3,15.5
		c1.7,1.3,3.9,1.6,5.9,2.2c6,2,12,4,17.9,6.1c1,0.3,1.8,0.7,2,1.9c0.8,3.7,1.5,7.4,0.4,11.2c-1.3,4.5-2.9,8.9-5,13
		c-1.7,3.4-4.3,6.1-8,7.6c-4.5,1.8-8,5.1-11.9,8c-1,0.7-0.9,1.7-0.8,2.7c1.3,7.1-3.4,11.1-7.9,15.1c-2.8,2.5-5.8,1.3-8.6-1.1
		c-0.1,2.7,1.5,4.4,2.4,6.2c0.7,1.5,0.6,2.4-1.1,2.3c-6.3-0.4-8.3,4.2-10,8.9c-2,5.4-5.1,10.7-4.4,16.9c0.1,0.7-0.3,1.5-0.7,2.2
		c-1.1,2-0.9,3.3,1.2,4.6c3.4,2.1,0.1,3.7-0.7,5.3c-1.2,2.4-2.2,0.1-3-0.5c-3.9-3-6.4-7.1-8.5-11.4c-1.5-3-1.6-6.3,0.1-9.6
		c0.9-1.7,2.6-4.1-1.2-5c-0.7-0.2-1.1-1.1-1.1-1.9c0-0.8,0.1-1.6,0-2.3c-1.3-7.9,0.2-15.3,3.1-22.7c1.2-3.1,0.5-6.7-1.7-9.5
		c-1.8-2.2-1.7-4.3-0.6-6.5c1.2-2.6,2.7-5.1,4.1-7.6c1.9-3.7,1.1-6.6-2.9-7.5c-11.6-2.4-14.3-12.5-19-21c-0.8-1.4-0.4-2.9,1-4.2
		c2.5-2.1,4.1-4.9,5.6-7.8c3.1-5.7,1.8-9.5-4.1-12c-1.1-0.5-2.2-0.9-3.3-1.4C369.8,294.1,371.5,294.1,371.6,292.9
		C371.6,292.9,371.6,292.9,371.6,292.9z M395.4,311c4.7,0,8.3-3.5,8.2-8.1c0-4.6-3.6-8.1-8.3-8.1c-4.6,0-7.9,3.4-8,7.9
		C387.3,307.5,390.7,311,395.4,311z"/>
	<path fill="#474747" d="M424.3,120.8c0.8-0.5,0.3-1-0.1-1.3c-1.7-1.6-1.5-3,0.6-3.8c2.6-1,1.7-2,0.2-3.1c-1.7-1.2-3.1-3.5-5.9-0.9
		c-1,0.9-3.6-0.6-4.8-2.1c-2.3-2.8-3.9-5.9-4.8-9.4c-0.7-2.7,0.6-3.2,2.8-2.8c2.8,0.4,4.3,2.7,6.1,4.4c3.9,3.7,3.8,3.7,6.9-0.5
		c0.3-0.4,0.5-0.7,0.8-1.1c1.7-2,2.6-5.7,4.9-5.9c4.1-0.3,8.7,0.7,12.1,2.9c2.7,1.9,5.1,4.4,8.2,6c2.5,1.3,4.9,1.6,7.1-0.4
		c1-0.8,1.7-0.6,2.7-0.2c4.5,2.1,9.1,4.1,13.6,6.1c1.4,0.6,2.1,1.4,2.3,2.9c0.2,1.3,0.5,2.6,0.8,3.9c0.8,3.7,3.1,4.7,6.3,2.6
		c2.7-1.7,4.9-1.7,6.1,1.4c2,4.9,6.3,6.9,10.5,9.1c1.9,1,3.8,1.9,5.7,2.8c5.7,2.7,6.7,10.6,1.8,14.4c-0.4,0.3-0.7,0.6-1.1,0.8
		c-5.1,2.6-7.2,6.7-6,12.4c0.4,1.7-0.9,2.1-1.9,3.2c-3.1,3.3-7.3,1.4-10.5,2.8c-6.4,2.8-13.4,4.9-16.4,12.6
		c-2.4,6.4-7.8,10-14.2,12.1c-2.2,0.7-3.1,0.4-3.3-2.2c-0.9-12.5-1.8-25,3.2-37.1c1-2.4,1.4-5.1,1.8-7.8c1.2-6.1-0.4-9.1-6.2-10.9
		c-3.1-1-4.2-2.3-3.4-5.5c0.6-2.1-0.4-4.1-1-6.1c-0.9-2.9,0-4.1,3-4.3c2.8-0.2,5.5-0.4,8.3-0.6c-1.1-3.2-4.1-5-8.3-4.9
		c-3.1,0.1-6.1,1.1-9.1,2c-1.7,0.5-2.3,2-2.8,3.5c-0.5,1.7-0.8,3.5-1.2,5.2c-1.1,4.6-3.8,6.1-8.2,4.6c-0.5-0.2-0.5,0.2-0.7,0.4
		c0,0,0.1,0,0.1,0c0.4-0.9,0.1-1-0.7-0.7l0.1,0.1c0.3-0.8-0.3-0.6-0.7-0.7c-0.8-0.9-1.5-1.8-2.3-2.7c-0.4-0.2-0.7-0.5-1.1-0.7l0.1,0
		C425.4,120.7,425.2,120,424.3,120.8L424.3,120.8z"/>
	<path fill="#7A7A7A" d="M832.3,361.6c-2-1.8-2.3-3.3-1-5.3c2.3-3.6,2.1-6.2-0.9-9.3c-1.3-1.4-2.6-2.7-3.8-4.2
		c-2.4-2.8-5.5-2.6-8.6-1.4c-3.1,1.2-6.1,2.7-9.1,4.1c-1.1,0.5-2.3,1.2-3.4,0.1c-1.1-1-1.2-2.4-0.6-3.7c1.9-4.2,2.7-8.7,3.3-13.2
		c0.3-2.7,1.7-4.2,4.2-4.9c3.7-1.1,6.9-3.1,9.5-5.9c1-1.1,2.1-2.1,3.8-1.4c3.5,1.5,4.2-0.8,4.8-3.4c0.2-0.8-0.5-2.3,1.1-2.3
		c1.3,0,2.6,0.1,3.3,1.7c0.9,1.9,1.9,3.8,2.9,5.6c0.9,1.5,1.8,2.1,3.1,0.1c1.4-2.2,1.1-4.7,1.8-7c0.9-2.7-0.4-4.4-2.2-6
		c-0.6-0.6-0.9-1.3-1.1-2.2c-0.4-2,0.3-4.7-2.7-5.8c-0.7-0.2-1.1-2.1-0.6-3c0.5-0.9,1.7-0.6,2.7-0.2c2,0.8,3.2,2.9,5.7,3.2
		c1,0.1,0.3,2.1,0,3.2c2,0.5,4.3-1.4,5.6,0.9c1.3,2.2-0.9,3.7-1.9,5.2c-2.2,3.3-2.5,6.8-1.4,10.5c2.1,7,3.6,14.2,4.3,21.5
		c0.2,2.3-0.3,3.9-2.1,5.5c-4.2,3.8-8.2,7.8-12.2,11.8C835.1,357.4,833.2,359,832.3,361.6z"/>
	<path fill="#4A4A4A" d="M426.7,122.1c0.8,0.9,1.5,1.8,2.3,2.7c0,0.5,0.3,0.7,0.7,0.7c0,0-0.1-0.1-0.1-0.1c0.1,0.4,0.1,0.9,0.7,0.7
		c0,0-0.1,0-0.1,0c-0.2,1.4-0.7,2.1-2.3,2.1c-6.6,0-13.1-0.5-19.3-2.7c-5.4-1.9-7.4-5.9-6.2-11.6c0.4-2.1,1.3-2.7,3.5-2
		c5.5,1.6,10.3,4.5,15.2,7.4c1,0.6,1.8,1.7,3.2,1.6c0,0,0-0.1,0-0.1c0.2,0.8,0.5,1.3,1.4,0.7c0,0-0.1,0-0.1,0
		C425.5,122.3,425.8,122.7,426.7,122.1z"/>
	<path fill="#4A4A4A" d="M386.5,107.5c3.7-0.2,7.3,0.1,10.8,1.1c1.7,0.4,2.3,1.3,2.3,3c-0.1,5.8-1.3,7.1-6.9,7.9
		c-0.7,0.1-1.3,0.2-2,0.3c-6.3,1-9-0.4-11.9-6.1c-0.9-1.8-0.7-3.2,1.3-4C382.3,108.9,384.5,108.2,386.5,107.5
		C386.6,107.4,386.5,107.5,386.5,107.5z"/>
	<path fill="#7C7C7C" d="M732.3,325.2c-0.2,0.6-0.4,1-0.5,1.5c-2.2,6.5-4.5,13-6.6,19.5c-0.6,1.8-1.1,2-2.7,1
		c-5.2-3.1-5.2-3.1-4.1-9c0.3-1.3,0.5-2.6,0.6-3.9c0.3-2.7,0.2-5.5,3.7-6.8c1.6-0.6,2.5-3,3.8-4.4c0.7-0.7,1.6-1.5,2.6-0.7
		C730.3,323.2,731.9,323.7,732.3,325.2z"/>
	<path fill="#7F7F7F" d="M850.7,221.9c-0.9-3.1,0.8-5.4,3.6-7.3c1.6-1.1,3-2.6,4.6-3.8c1.9-1.6,2.9-3.4,1.4-5.7
		c-1.1-1.7,0.1-2.9,1-3.8c1.2-1.3,1.7,0.6,2.5,1.1c4,2.7,3.7,12.6-1.2,16.7c-0.8,0.7-2.3,1.9-2.9-0.6c-0.4-1.4-1.9-1.4-2.8-1
		c-1.2,0.5-2.3,1.4-2,3c0.2,1,0.3,2,0.6,2.9c0.3,1.4-0.4,2.4-1.2,3.3c-0.8,0.8-2.1,1-3.1,0.6c-1.1-0.4-0.5-1.5-0.6-2.3
		C850.5,224.1,850.6,223.2,850.7,221.9z"/>
	<path fill="#B4B4B4" d="M821.4,247.6c0,0,0,0.1,0,0.1c-1,0.6-0.4,1.3-0.1,2c1.1,2.9,0.4,5.4-1.8,7.5c-2.2,2.1-4.8,2.5-7.6,1.3
		c-0.5-0.2-1-0.2-1.5-0.3c0,0,0,0,0,0c0.2-0.7-0.2-0.7-0.7-0.7c0,0,0,0,0,0c-2-3.3-2.9-6.5-0.3-9.9c0.1-0.1-0.2-0.5-0.3-0.7
		c0,0-0.1,0.1-0.1,0.1c0.9,0.6,1.2,0.2,1.4-0.7c0,0,0,0,0,0c3.1-1.4,6.2-0.6,9.3,0c0,0,0,0,0,0c-0.3,0.8-0.1,1,0.7,0.7l0,0
		c-0.1,0.4-0.2,0.8,0.3,1C820.9,247.9,821.2,247.7,821.4,247.6z"/>
	<path fill="#B4B4B4" d="M359.8,282.1c0.1-0.2,0.2-0.3,0.4-0.4c0.9,0.3,1.7-0.1,2.6-0.4c2.9-1.1,5.7-0.8,7.9,1.5
		c2.2,2.3,2.7,5,1.2,7.9c-0.3,0.7-0.9,1.3-0.3,2.1c0,0,0,0,0,0c-1-0.6-1.6,0.2-2.4,0.7c-2.7,1.6-5.3,1.3-7.7-0.5
		c-2.6-2-3.2-4.7-2.3-7.7C359.5,284.3,360.1,283.3,359.8,282.1z"/>
	<path fill="#B4B4B4" d="M654.6,217.4c-3.1,1.1-6.1,3.3-9.6,0.9c-0.8-0.6-1.3-1.9-2.7-1.5c0,0,0.1,0,0.1,0c0.5-1-0.1-1.9-0.4-2.8
		c-0.7-3,0.5-6,3.3-7.6c2.7-1.5,5.3-1.4,7.7,0.6c2.4,2,3.3,4.6,2.2,7.7c-0.3,0.8-1,1.5-0.7,2.5L654.6,217.4z"/>
	<path fill="#B4B4B4" d="M619.6,198.8c0.4-0.9-0.2-1.7-0.4-2.5c-0.6-3,0.3-5.5,2.8-7.3c2.6-1.9,5.4-1.9,8,0c2.4,1.8,3.5,4.2,2.6,7.3
		c-0.2,0.8-0.7,1.6-0.3,2.6l0-0.1c-1.4,0-2,0.7-2,2l0.1,0C626.5,202.1,622.9,201.2,619.6,198.8L619.6,198.8z"/>
	<path fill="#B4B4B4" d="M755.2,268.3c-0.9-0.2-1.4,0.4-2.1,0.7c-3.5,1.4-6.8,0.4-8.7-2.6c-1.7-2.6-1.3-6.3,0.9-8.5
		c2.3-2.4,5.8-2.7,8.8-0.9c0.8,0.5,1.3,1.7,2.5,1.2c0,0-0.1,0-0.1,0c0.6,3.2,1,6.4-0.7,9.4c0,0,0,0,0,0
		C755.3,267.5,755.1,267.8,755.2,268.3L755.2,268.3z"/>
	<path fill="#B4B4B4" d="M669.1,211.4c0.1,0.4,0.1,0.9,0.3,1.2c1.9,2.9,2.1,5.7-0.2,8.5c-2.3,2.7-5.1,3.1-8.4,2
		c-0.4-0.1-0.8-0.1-1.3-0.1c0,0,0.1,0,0.1,0c-0.2-0.8-0.6-1.1-1.4-0.7l0,0c0.5-1.7-0.9-2.8-1.3-4.2c-0.7-2.9,1.5-4.8,2-7.2
		c0,0,0,0,0,0C662.4,209.8,665.8,209.5,669.1,211.4C669.1,211.5,669.1,211.4,669.1,211.4z"/>
	<path fill="#B4B4B4" d="M651.1,179.6c-2.1,0.2-3.6,2.1-5.9,1.6c-3.1-0.7-5.4-2.2-6.1-5.4c-0.7-3.1,0.4-5.8,3.1-7.5
		c2.7-1.6,5.5-1.3,8.1,0.6c0.6,0.5,1,1.6,2.1,1.1c0,0-0.1,0-0.1,0C653,173.4,652.9,176.6,651.1,179.6L651.1,179.6z"/>
	<path fill="#4C4C4C" d="M386.5,107.5C386.5,107.5,386.6,107.4,386.5,107.5c-2.9-0.4-5.1-1.7-6.5-4.2c5.5-5.9,12.7-6.2,20-6.1
		c1,0,2.5-0.2,2.8,1.2c0.3,1.2-0.7,2-1.5,2.8c-3.7,3.4-8.5,4.1-13,5.6C387.7,107,387,106.8,386.5,107.5z"/>
	<path fill="#B4B4B4" d="M699.7,343.5c-0.5,1.1,0.5,1.8,0.8,2.7c1.1,3.3,0.3,6.4-2.3,8.3c-2.4,1.7-6.1,1.6-8.3-0.3
		c-2.6-2.2-3.4-5.1-2.1-8c1.3-3.1,4.4-4.6,7.9-4.1c1.2,0.2,2.1,1.3,3.4,0.7c0,0,0,0,0,0C698.9,343.4,699.2,343.7,699.7,343.5
		L699.7,343.5z"/>
	<path fill="#B4B4B4" d="M815.2,294.2c-1.1-0.4-1.5,0.6-2.2,1.1c-3,1.8-6.5,1.4-8.8-1c-2.2-2.3-2.6-5.8-0.8-8.5
		c1.7-2.6,5.2-3.8,8.2-2.7c3.1,1.1,4.8,4.2,4.4,7.7C815.7,291.9,814.6,292.9,815.2,294.2L815.2,294.2z"/>
	<path fill="#4C4C4C" d="M396.9,277.5c-2.9,1-5.5,1.1-8.1,0.4c-3.5-1-6.9-2.2-10.4-3.5c-0.8-0.3-1.7-0.7-2.2-1.4
		c-1.2-1.4-2.1-3.3-1.4-4.9c0.8-1.6,2.6-0.3,3.8,0C387.2,269.9,393,272.9,396.9,277.5z"/>
	<path fill="#7F7F7F" d="M704.5,129.5c0.3-2.5,0.3-4.9-0.8-7.4c-0.9-2.2-0.5-4.5,1.7-6.2c2-1.5,4-3.1,6.1-4.6
		c0.8-0.5,1.7-2.1,2.6-0.5c0.8,1.3,3.1,2.3,1.4,4.5c-1.5,1.9-3,3.9-4.5,5.8c-1.3,1.6-2.6,3.1-2.8,5.5
		C708,128.3,706.4,129.5,704.5,129.5L704.5,129.5z"/>
	<path fill="#7C7C7C" d="M602.1,170.3c-4.3,1.3-5.5-2.2-7.3-4.8c-0.9-1.3,0-1.5,0.9-1.7c1.8-0.5,3.6-1,5.5-0.9
		c1.3,0,2.8,0.1,3.9-0.6c3.2-2.1,4.7-0.7,6.1,2.2c1.3,2.8,1,4.2-2.2,4.8C606.7,169.9,604.4,170,602.1,170.3z"/>
	<path fill="#7F7F7F" d="M864.7,352.7c-1.1,1.7-2,2.9-3.5,3.6c-4.7,2.3-9.3,4.6-14,6.9c-0.7,0.4-1.7,1.5-2.4-0.1
		c-0.6-1.3,0.3-1.8,1.2-2.2c3.8-2,7.4-4.3,10.7-7.2c2.1-1.9,3.3-3.8,3-6.5c-0.1-0.6-0.2-1.4,0.7-1.6c0.6-0.1,1.1,0.1,1.4,0.6
		C863.1,348.2,860.3,351.9,864.7,352.7z"/>
	<path fill="#7C7C7C" d="M654.6,217.4c0,0-0.2-0.2-0.2-0.2c1-0.2,1.4,0.4,1.6,1.3c0.4,1.4,0.6,3,2.3,3.7c0,0,0,0,0,0
		c0.2,0.7,0.4,1.4,1.4,0.7c0,0-0.1,0-0.1,0c1,1.5,2,3,3.1,4.4c1.1,1.4,1.9,2.6-0.2,3.7c-1.8,0.9-4.1,2.5-5.3-0.3
		c-1.2-3-2.8-5.3-5.5-7.1c-1.1-0.7-2.1-2.8,0.4-3.8C653.1,219.3,654.2,218.7,654.6,217.4z"/>
	<path fill="#7F7F7F" d="M704.4,129.5c1.4,2.3,2.7,4.7,4.2,6.9c1,1.5,0.7,2.1-0.9,2.6c-3,1-5.7-0.2-8.4-1.1
		c-1.3-0.5-0.9-1.9-0.2-2.9c1-1.4,1.6-2.9,1.9-4.6c0.2-1-0.4-2.4,1-2.9C703.8,126.8,703.3,129.3,704.4,129.5
		C704.5,129.5,704.4,129.5,704.4,129.5z"/>
	<path fill="#7F7F7F" d="M815.1,294.2c2.7-1.9,2.4-4.6,1.6-7.1c-0.8-2.7,1.4-2.5,2.5-3.5c1.1-1,2.7-1,3.2,0.1c0.8,1.9,0.9,4.2-0.3,6
		c-1.3,2-1.6,4.3-2.6,6.4c-0.4,0.8,0.5,2.6-1.5,2.2c-1.4-0.3-3-0.5-3-2.5C815.1,295.3,815.1,294.7,815.1,294.2
		C815.2,294.2,815.1,294.2,815.1,294.2z"/>
	<path fill="#7F7F7F" d="M831.5,282.3c-1-1.1-2-2-2.7-3.2c-0.5-0.9,2.7-4.4,3.8-4.4c1.9,0.1,3.4,2,3.3,3.1
		C835.9,280,833.2,280.6,831.5,282.3z"/>
	<path fill="#7F7F7F" d="M632.4,198.9c2.1-0.3,2.2,0.4,1,1.9c-1.7,2.1-5.9,3.7-10.5,3.9c0.7-2,0.7-2,2.6-2.1
		c1.8-0.1,3.8,0.1,4.9-1.8c0,0-0.1,0-0.1,0C631.7,200.9,632.3,200.1,632.4,198.9L632.4,198.9z"/>
	<path fill="#7F7F7F" d="M800.6,288.9c-1.5-0.6-2.4-2.1-3.7-3.1c-1.2-1-0.6-2.1,0-2.9c1-1.3,2.1-0.4,2.8,0.3
		C801.2,284.8,802.5,286.5,800.6,288.9z"/>
	<path fill="#7F7F7F" d="M624,183.1c1.8-0.3,2.2,1.1,2.5,2.4c0.4,1.9-1.5,1.2-1.9,1.1c-1.3-0.3-2.5,2.1-3.7,0
		c-0.3-0.6-0.9-1.4-0.1-2.1C621.7,183.6,622.7,183,624,183.1z"/>
	<path fill="#7F7F7F" d="M619.6,198.8c-0.4,0.9,1.3,1.9-0.1,2.6c-1.1,0.5-2.3-0.1-2.9-1c-0.7-0.9-0.9-2.7,0-3.4
		C618.5,195.6,618.3,198.8,619.6,198.8C619.6,198.8,619.6,198.8,619.6,198.8z"/>
	<path fill="#7F7F7F" d="M809,298.5c0,1.2-0.5,1.8-1.6,1.7c-0.9,0-1.4-0.4-1.4-1.3c0-0.8-0.1-1.7,1.1-1.4
		C807.9,297.6,809,297.3,809,298.5z"/>
	<path fill="#EAEAEA" d="M336.6,235.4c-4.5,0-8.3-3.7-8.3-8.2c0-4.4,3.9-8.2,8.4-8.2c4.4,0.1,8,3.7,8.1,8.1
		C344.9,231.6,341.1,235.4,336.6,235.4z M343.5,227.1c-0.1-3.4-3.6-6.8-7-6.7c-3.5,0-7.1,3.7-6.9,7.1c0.2,3.6,3.4,6.7,7,6.7
		C340.3,234.1,343.6,230.7,343.5,227.1z"/>
	<path fill="#EAEAEA" d="M322.7,172.8c4.6,0,8.2,3.6,8.1,8.2c-0.1,4.5-3.5,7.9-8,8c-4.6,0.1-8.3-3.5-8.3-8.1
		C314.4,176.3,318,172.8,322.7,172.8z M322.7,187.6c3.8,0,6.8-2.9,6.8-6.6c0.1-3.9-3-6.9-7-6.8c-3.7,0-6.8,3.2-6.8,6.8
		C315.8,184.5,319,187.5,322.7,187.6z"/>
	<path fill="#EAEAEA" d="M395.4,311c-4.7,0-8.1-3.6-8-8.2c0.1-4.6,3.4-7.9,8-7.9c4.6,0,8.2,3.5,8.3,8.1
		C403.6,307.5,400,311,395.4,311z M395.4,309.6c4.1,0.1,7-2.8,6.9-6.8c0-3.7-3-6.6-6.8-6.6c-3.9,0-6.6,2.7-6.6,6.7
		C388.8,306.8,391.5,309.6,395.4,309.6z"/>
	<path fill="#B4B4B4" d="M343.5,227.1c0.1,3.6-3.2,7-6.9,7.1c-3.6,0-6.8-3.1-7-6.7c-0.2-3.5,3.4-7.1,6.9-7.1
		C339.9,220.3,343.4,223.7,343.5,227.1z"/>
	<path fill="#B4B4B4" d="M322.7,187.6c-3.7,0-6.9-3.1-6.9-6.7c0-3.6,3.1-6.8,6.8-6.8c4,0,7.1,3,7,6.8
		C329.5,184.7,326.5,187.6,322.7,187.6z"/>
	<path fill="#B4B4B4" d="M395.4,309.6c-3.9,0-6.5-2.8-6.5-6.8c0-3.9,2.7-6.7,6.6-6.7c3.8,0,6.8,2.9,6.8,6.6
		C402.3,306.8,399.4,309.7,395.4,309.6z"/>
</g>
</svg>
